<svg xmlns="http://www.w3.org/2000/svg" width="1280" height="760" viewBox="0 0 1280 760">
  <defs>
    <linearGradient id="nav" x1="0" y1="0" x2="0" y2="1">
      <stop offset="0%" stop-color="#173b63"/>
      <stop offset="100%" stop-color="#102f52"/>
    </linearGradient>
    <linearGradient id="blueSoft" x1="0" y1="0" x2="1" y2="1">
      <stop offset="0%" stop-color="#eaf3ff"/>
      <stop offset="100%" stop-color="#f8fbff"/>
    </linearGradient>
    <filter id="shadow" x="-20%" y="-20%" width="140%" height="140%">
      <feDropShadow dx="0" dy="8" stdDeviation="12" flood-color="#0b1f33" flood-opacity="0.08"/>
    </filter>
    <symbol id="i-dashboard" viewBox="0 0 24 24">
      <rect x="4" y="4" width="6" height="6" rx="1.5" fill="none" stroke="currentColor" stroke-width="1.8"/>
      <rect x="14" y="4" width="6" height="6" rx="1.5" fill="none" stroke="currentColor" stroke-width="1.8"/>
      <rect x="4" y="14" width="6" height="6" rx="1.5" fill="none" stroke="currentColor" stroke-width="1.8"/>
      <rect x="14" y="14" width="6" height="6" rx="1.5" fill="none" stroke="currentColor" stroke-width="1.8"/>
    </symbol>
    <symbol id="i-company" viewBox="0 0 24 24">
      <path d="M5 20V6.8L14 4v16M14 9h5v11M8 9h3M8 13h3M8 17h3M17 13h1M17 17h1" fill="none" stroke="currentColor" stroke-width="1.8" stroke-linecap="round" stroke-linejoin="round"/>
    </symbol>
    <symbol id="i-user" viewBox="0 0 24 24">
      <circle cx="12" cy="8" r="3.4" fill="none" stroke="currentColor" stroke-width="1.8"/>
      <path d="M5.5 20c.8-4 3-6.2 6.5-6.2S17.7 16 18.5 20" fill="none" stroke="currentColor" stroke-width="1.8" stroke-linecap="round"/>
    </symbol>
    <symbol id="i-visit" viewBox="0 0 24 24">
      <rect x="5" y="4" width="14" height="16" rx="2" fill="none" stroke="currentColor" stroke-width="1.8"/>
      <path d="M9 4.5V3m6 1.5V3M8.5 9h7M8.5 13h7M8.5 17h4" fill="none" stroke="currentColor" stroke-width="1.8" stroke-linecap="round"/>
    </symbol>
    <symbol id="i-ai" viewBox="0 0 24 24">
      <path d="M12 3l1.4 4.1L17.5 8.5l-4.1 1.4L12 14l-1.4-4.1L6.5 8.5l4.1-1.4L12 3Z" fill="none" stroke="currentColor" stroke-width="1.8" stroke-linejoin="round"/>
      <path d="M6 15l.8 2.2L9 18l-2.2.8L6 21l-.8-2.2L3 18l2.2-.8L6 15Zm13-1l.7 1.8 1.8.7-1.8.7L19 20l-.7-1.8-1.8-.7 1.8-.7L19 14Z" fill="none" stroke="currentColor" stroke-width="1.6" stroke-linejoin="round"/>
    </symbol>
    <symbol id="i-map" viewBox="0 0 24 24">
      <path d="M8 5l8-2 5 2v14l-5-2-8 2-5-2V3l5 2Z" fill="none" stroke="currentColor" stroke-width="1.8" stroke-linejoin="round"/>
      <path d="M8 5v14m8-16v14" fill="none" stroke="currentColor" stroke-width="1.8" stroke-linecap="round"/>
    </symbol>
    <symbol id="i-settings" viewBox="0 0 24 24">
      <path d="M12 8.3a3.7 3.7 0 1 0 0 7.4 3.7 3.7 0 0 0 0-7.4Z" fill="none" stroke="currentColor" stroke-width="1.8"/>
      <path d="M19.3 13.6c.1-.5.1-1.1 0-1.6l2-1.5-2-3.5-2.4 1a7.5 7.5 0 0 0-1.4-.8L15.2 4H8.8l-.3 3.2c-.5.2-1 .5-1.4.8l-2.4-1-2 3.5 2 1.5a8 8 0 0 0 0 1.6l-2 1.5 2 3.5 2.4-1c.4.3.9.6 1.4.8l.3 3.2h6.4l.3-3.2c.5-.2 1-.5 1.4-.8l2.4 1 2-3.5-2-1.5Z" fill="none" stroke="currentColor" stroke-width="1.4" stroke-linejoin="round"/>
    </symbol>
  </defs>

  <rect width="1280" height="760" fill="#f3f6fa"/>
  <rect x="0" y="0" width="248" height="760" fill="url(#nav)"/>
  <rect x="22" y="34" width="48" height="48" rx="10" fill="#f28a2e"/>
  <text x="46" y="66" fill="#fff" font-family="Segoe UI, Microsoft YaHei, sans-serif" font-size="24" font-weight="700" text-anchor="middle">F</text>
  <text x="88" y="55" fill="#fff" font-family="Segoe UI, Microsoft YaHei, sans-serif" font-size="18" font-weight="700">FOREXCELTECH</text>
  <text x="88" y="78" fill="#a9bdd4" font-family="Microsoft YaHei, sans-serif" font-size="12">客户背景管理</text>
  <line x1="18" y1="126" x2="230" y2="126" stroke="#31557c" stroke-width="1"/>

  <g font-family="Microsoft YaHei, sans-serif" font-size="16" font-weight="600">
    <g transform="translate(16 150)">
      <rect width="216" height="42" rx="7" fill="#2f527b"/>
      <rect width="4" height="26" x="0" y="8" rx="2" fill="#4aa3ff"/>
      <g color="#dce9f7"><use href="#i-dashboard" x="18" y="10" width="22" height="22"/></g>
      <text x="54" y="27" fill="#fff">工作台</text>
    </g>
    <g transform="translate(16 202)" opacity=".92">
      <g color="#bfd0e3"><use href="#i-company" x="18" y="10" width="22" height="22"/></g>
      <text x="54" y="27" fill="#dbe7f5">客户</text>
    </g>
    <g transform="translate(16 254)" opacity=".92">
      <g color="#bfd0e3"><use href="#i-user" x="18" y="10" width="22" height="22"/></g>
      <text x="54" y="27" fill="#dbe7f5">联系人</text>
    </g>
    <g transform="translate(16 306)" opacity=".92">
      <g color="#bfd0e3"><use href="#i-visit" x="18" y="10" width="22" height="22"/></g>
      <text x="54" y="27" fill="#dbe7f5">拜访记录</text>
    </g>
    <g transform="translate(16 358)" opacity=".92">
      <g color="#bfd0e3"><use href="#i-ai" x="18" y="10" width="22" height="22"/></g>
      <text x="54" y="27" fill="#dbe7f5">智能录入</text>
    </g>
    <g transform="translate(16 410)" opacity=".92">
      <g color="#bfd0e3"><use href="#i-map" x="18" y="10" width="22" height="22"/></g>
      <text x="54" y="27" fill="#dbe7f5">客户地图</text>
    </g>
  </g>

  <rect x="248" y="0" width="1032" height="70" fill="#fff"/>
  <line x1="248" y1="70" x2="1280" y2="70" stroke="#e2e8f0"/>
  <rect x="278" y="20" width="610" height="34" rx="6" fill="#fff" stroke="#d8e1ec"/>
  <text x="300" y="42" fill="#8a96a6" font-family="Microsoft YaHei, sans-serif" font-size="14">搜索客户名称、简称、行业或区域</text>
  <rect x="910" y="20" width="62" height="34" rx="6" fill="#fff" stroke="#d8e1ec"/>
  <text x="941" y="42" fill="#0f52ba" font-family="Microsoft YaHei, sans-serif" font-size="14" text-anchor="middle">备份</text>
  <rect x="986" y="20" width="62" height="34" rx="6" fill="#fff" stroke="#d8e1ec"/>
  <text x="1017" y="42" fill="#0f52ba" font-family="Microsoft YaHei, sans-serif" font-size="14" text-anchor="middle">导出</text>
  <rect x="1062" y="20" width="36" height="34" rx="6" fill="#fff" stroke="#d8e1ec"/>
  <g color="#7d8794"><use href="#i-settings" x="1070" y="27" width="20" height="20"/></g>
  <rect x="1116" y="20" width="112" height="34" rx="6" fill="#0f52ba"/>
  <text x="1172" y="42" fill="#fff" font-family="Microsoft YaHei, sans-serif" font-size="14" text-anchor="middle">新增客户</text>

  <text x="278" y="112" fill="#7d8794" font-family="Microsoft YaHei, sans-serif" font-size="14">从客户开始沉淀关键人和沟通历史。</text>

  <g filter="url(#shadow)">
    <rect x="278" y="134" width="292" height="78" rx="8" fill="#fff"/>
    <rect x="296" y="154" width="40" height="40" rx="8" fill="#eaf3ff"/>
    <g color="#0f52ba"><use href="#i-company" x="306" y="163" width="20" height="20"/></g>
    <text x="352" y="166" fill="#7d8794" font-family="Microsoft YaHei, sans-serif" font-size="14">客户</text>
    <text x="352" y="193" fill="#111827" font-family="Segoe UI, Microsoft YaHei, sans-serif" font-size="26" font-weight="700">1013</text>
  </g>
  <g filter="url(#shadow)">
    <rect x="592" y="134" width="292" height="78" rx="8" fill="#fff"/>
    <rect x="610" y="154" width="40" height="40" rx="8" fill="#eaf3ff"/>
    <g color="#0f52ba"><use href="#i-user" x="620" y="163" width="20" height="20"/></g>
    <text x="666" y="166" fill="#7d8794" font-family="Microsoft YaHei, sans-serif" font-size="14">联系人</text>
    <text x="666" y="193" fill="#111827" font-family="Segoe UI, Microsoft YaHei, sans-serif" font-size="26" font-weight="700">2014</text>
  </g>
  <g filter="url(#shadow)">
    <rect x="906" y="134" width="292" height="78" rx="8" fill="#fff"/>
    <rect x="924" y="154" width="40" height="40" rx="8" fill="#eaf3ff"/>
    <g color="#0f52ba"><use href="#i-visit" x="934" y="163" width="20" height="20"/></g>
    <text x="980" y="166" fill="#7d8794" font-family="Microsoft YaHei, sans-serif" font-size="14">拜访记录</text>
    <text x="980" y="193" fill="#111827" font-family="Segoe UI, Microsoft YaHei, sans-serif" font-size="26" font-weight="700">608</text>
  </g>

  <g filter="url(#shadow)">
    <rect x="278" y="244" width="614" height="452" rx="8" fill="#fff"/>
    <text x="306" y="286" fill="#111827" font-family="Microsoft YaHei, sans-serif" font-size="22" font-weight="700">拜访日历</text>
    <text x="306" y="314" fill="#7d8794" font-family="Microsoft YaHei, sans-serif" font-size="14">绿色为已拜访，红色为计划未完成。</text>
    <rect x="666" y="266" width="84" height="34" rx="6" fill="#fff" stroke="#d8e1ec"/>
    <text x="708" y="288" fill="#0f52ba" font-family="Microsoft YaHei, sans-serif" font-size="14" text-anchor="middle">2026年</text>
    <rect x="762" y="266" width="64" height="34" rx="6" fill="#fff" stroke="#d8e1ec"/>
    <text x="794" y="288" fill="#0f52ba" font-family="Microsoft YaHei, sans-serif" font-size="14" text-anchor="middle">7月</text>
    <rect x="838" y="266" width="34" height="34" rx="6" fill="#fff" stroke="#d8e1ec"/>
    <path d="M848 284h14m-7-7v14" stroke="#7d8794" stroke-width="1.8" stroke-linecap="round"/>
    <g font-family="Microsoft YaHei, sans-serif" text-anchor="middle">
      <text x="336" y="358" fill="#7d8794" font-size="13">一</text><text x="418" y="358" fill="#7d8794" font-size="13">二</text><text x="500" y="358" fill="#7d8794" font-size="13">三</text><text x="582" y="358" fill="#7d8794" font-size="13">四</text><text x="664" y="358" fill="#7d8794" font-size="13">五</text><text x="746" y="358" fill="#7d8794" font-size="13">六</text><text x="828" y="358" fill="#7d8794" font-size="13">日</text>
      <g fill="#111827" font-size="18" font-weight="700">
        <text x="500" y="402">1</text><text x="582" y="402">2</text><text x="664" y="402">3</text><text x="746" y="402">4</text><text x="828" y="402">5</text>
        <text x="336" y="470">6</text><text x="418" y="470">7</text><text x="500" y="470">8</text><text x="582" y="470">9</text><text x="664" y="470">10</text><text x="746" y="470">11</text><text x="828" y="470">12</text>
        <text x="336" y="538">13</text><text x="418" y="538">14</text><text x="500" y="538">15</text><text x="582" y="538">16</text><text x="664" y="538">17</text><text x="746" y="538">18</text><text x="828" y="538">19</text>
        <text x="336" y="606">20</text><text x="418" y="606">21</text><text x="500" y="606">22</text><text x="582" y="606">23</text><text x="664" y="606">24</text><text x="746" y="606">25</text><text x="828" y="606">26</text>
        <text x="336" y="674">27</text><text x="418" y="674">28</text><text x="500" y="674">29</text><text x="582" y="674">30</text><text x="664" y="674">31</text>
      </g>
      <circle cx="664" cy="394" r="24" fill="#e4f7ef"/><text x="664" y="402" fill="#0f7a4f" font-size="18" font-weight="700">3</text>
      <circle cx="746" cy="530" r="24" fill="#fde6ea"/><text x="746" y="538" fill="#a63a43" font-size="18" font-weight="700">18</text>
    </g>
  </g>

  <g filter="url(#shadow)">
    <rect x="916" y="244" width="282" height="452" rx="8" fill="#fff"/>
    <text x="944" y="286" fill="#111827" font-family="Microsoft YaHei, sans-serif" font-size="20" font-weight="700">最近客户</text>
    <rect x="1110" y="263" width="62" height="30" rx="6" fill="#fff" stroke="#d8e1ec"/>
    <text x="1141" y="283" fill="#0f52ba" font-family="Microsoft YaHei, sans-serif" font-size="13" text-anchor="middle">查看全部</text>
    <g font-family="Microsoft YaHei, sans-serif">
      <text x="944" y="334" fill="#111827" font-size="16" font-weight="700">广发</text>
      <text x="944" y="360" fill="#7d8794" font-size="13">- · 上海 · 最近更新 2026/6/29</text>
      <line x1="944" y1="386" x2="1172" y2="386" stroke="#e5ebf2"/>
      <text x="944" y="428" fill="#111827" font-size="16" font-weight="700">界面测试客户-202606281601</text>
      <text x="944" y="454" fill="#7d8794" font-size="13">精密装配设备 · 华南</text>
      <line x1="944" y1="480" x2="1172" y2="480" stroke="#e5ebf2"/>
      <text x="944" y="522" fill="#111827" font-size="16" font-weight="700">绍兴微装</text>
      <text x="944" y="548" fill="#7d8794" font-size="13">智能装备 · 最近更新</text>
      <line x1="944" y1="574" x2="1172" y2="574" stroke="#e5ebf2"/>
      <text x="944" y="616" fill="#111827" font-size="16" font-weight="700">宁波封测</text>
      <text x="944" y="642" fill="#7d8794" font-size="13">半导体封装测试 · 宁波</text>
    </g>
  </g>

  <text x="278" y="734" fill="#7d8794" font-family="Microsoft YaHei, sans-serif" font-size="12">设计方向：统一线性图标、减少纯文字菜单负担、保持海军蓝 + 科技蓝主色、卡片轻阴影、信息层级更清晰。</text>
</svg>
